<svg width="190" height="32" data-v-423bf9ae="" xmlns="http://www.w3.org/2000/svg" viewBox="0 0 1141.3173496763789 193" class="fontAboveSlogan"><!----><!----><!----><g data-v-423bf9ae="" id="8c4af3a5-f278-47f0-a2bf-785668f6e616" fill="#64ffda" transform="matrix(11.834320238964088,0,0,11.834320238964088,238.63141597836164,-21.9102387844696)"><path d="M6.34 3.25L6.34 4.39L2.06 6.84L6.34 9.27L6.34 10.41L0.59 7.12L0.59 6.56L6.34 3.25ZM7.08 9.37L7.08 1.93L9.27 1.93L9.27 1.93Q9.63 3.25 10.76 7.21L10.76 7.21L11.62 7.21L11.62 7.21Q11.66 7.21 11.90 6.26L11.90 6.26L11.90 6.26Q12.45 4.40 13.13 1.93L13.13 1.93L15.15 1.93L15.15 8.29L15.26 8.29L15.26 9.45L14.65 9.45L14.65 9.66L15.26 9.66L15.26 11.73L13.54 11.73L13.54 10.97L13.75 10.97L13.75 8.62L13.39 8.62L13.39 7.44L13.17 7.44L13.16 7.51L12.97 7.51L12.97 9.18L12.38 9.18L12.38 9.96L11.87 9.96L11.87 11.29L10.66 11.29L10.66 10.44L9.91 10.44L9.91 9.28L9.47 9.28L9.47 8.07L9.21 8.07L9.21 8.07Q9.20 7.97 9.05 7.44L9.05 7.44L10.79 7.44L10.74 7.21L9.00 7.21L9.05 7.44L8.82 7.44L8.82 8.96L8.93 8.96L8.93 10.64L8.50 10.64L8.50 10.94L8.93 10.94L8.93 11.38L7.38 11.38L7.38 9.37L7.08 9.37ZM8.82 6.51L8.80 6.51L8.80 6.63L8.80 6.63Q8.80 6.78 8.82 7.21L8.82 7.21L8.98 7.21L8.98 7.21Q8.82 6.55 8.82 6.51L8.82 6.51ZM13.41 6.53L13.39 6.53L13.24 7.21L13.39 7.21L13.39 7.21Q13.41 6.79 13.41 6.60L13.41 6.60L13.41 6.53ZM8.80 7.21L8.26 7.21L8.26 7.44L8.80 7.44L8.80 7.21ZM13.23 7.21L11.65 7.21L11.60 7.44L13.16 7.44L13.16 7.44Q13.23 7.26 13.23 7.21L13.23 7.21ZM14.60 7.21L13.41 7.21L13.41 7.44L14.60 7.44L14.60 7.21ZM11.57 7.44L10.82 7.44L10.82 7.44Q10.94 7.97 10.97 7.97L10.97 7.97L11.17 7.97L11.17 8.85L11.48 8.85L11.48 7.49L11.57 7.49L11.57 7.44ZM15.26 9.66L15.26 9.45L16.26 9.45L16.26 9.66L15.26 9.66ZM15.36 10.12L15.36 9.74L15.44 9.74L15.44 9.89L15.58 9.89L15.58 9.78L15.58 9.78Q15.58 9.74 15.61 9.74L15.61 9.74L15.64 9.74L15.64 9.74Q15.67 9.75 15.67 9.78L15.67 9.78L15.67 10.09L15.67 10.09Q15.67 10.12 15.64 10.12L15.64 10.12L15.58 10.12L15.58 9.97L15.44 9.97L15.44 10.12L15.36 10.12ZM15.36 10.62L15.36 10.24L15.59 10.24L15.59 10.24Q15.63 10.25 15.63 10.27L15.63 10.27L15.63 10.32L15.44 10.32L15.44 10.39L15.59 10.39L15.59 10.47L15.44 10.47L15.44 10.62L15.36 10.62ZM15.38 10.74L15.38 10.74L15.61 10.74L15.61 10.74Q15.64 10.74 15.64 10.77L15.64 10.77L15.64 10.80L15.46 11.03L15.64 11.03L15.64 11.12L15.36 11.12L15.36 11.12Q15.33 11.12 15.33 11.07L15.33 11.07L15.33 11.07Q15.38 10.99 15.51 10.82L15.51 10.82L15.35 10.82L15.35 10.77L15.35 10.77Q15.35 10.74 15.38 10.74ZM15.36 11.53L15.36 11.23L15.44 11.23L15.44 11.45L15.46 11.53L15.54 11.53L15.54 11.53Q15.58 11.53 15.58 11.50L15.58 11.50L15.58 11.27L15.58 11.27Q15.58 11.23 15.61 11.23L15.61 11.23L15.64 11.23L15.64 11.23Q15.67 11.24 15.67 11.27L15.67 11.27L15.67 11.46L15.67 11.46Q15.67 11.61 15.52 11.61L15.52 11.61L15.50 11.61L15.50 11.61Q15.40 11.61 15.36 11.53L15.36 11.53ZM6.93 11.61L6.93 11.46L8.69 11.46L8.69 11.61L6.93 11.61ZM19.96 1.93L19.96 1.93L19.96 1.93Q22.07 1.93 22.73 3.41L22.73 3.41L22.73 3.41Q23.11 4.13 23.11 6.18L23.11 6.18L23.11 6.23L22.38 6.23L22.38 6.56L23.11 6.56L23.11 10.09L22.63 10.09L22.63 11.37L21.68 11.37L21.68 11.73L18.35 11.73L18.35 11.37L17.94 11.37L17.94 10.09L17.09 10.09L17.09 9.09L17.60 9.09L17.60 8.57L17.09 8.57L17.09 9.09L15.88 9.09L15.88 8.57L16.80 8.57L16.80 8.57Q16.78 7.37 16.78 6.73L16.78 6.73L16.78 5.90L16.78 5.90Q16.78 3.58 17.57 2.79L17.57 2.79L17.57 2.79Q18.29 1.93 19.96 1.93ZM18.76 5.31L18.76 5.31L18.78 5.31L18.76 5.34L18.76 6.23L18.03 6.23L18.03 6.56L18.76 6.56L18.76 6.56Q18.74 8.67 18.74 9.75L18.74 9.75L18.74 10.09L20.38 10.09L20.38 9.55L21.14 9.55L21.14 9.54L21.14 9.54Q21.14 8.54 21.12 6.75L21.12 6.75L21.12 6.75Q21.12 6.68 21.14 6.37L21.14 6.37L21.14 6.37Q21.14 4.44 20.91 4.00L20.91 4.00L20.91 4.00Q20.68 3.58 20.06 3.58L20.06 3.58L19.81 3.58L19.81 3.58Q19.07 3.58 18.89 4.22L18.89 4.22L18.89 4.22Q18.81 4.55 18.76 5.31ZM23.11 6.56L23.11 6.23L24.28 6.23L24.28 6.56L23.11 6.56ZM23.15 6.64L23.19 6.62L23.22 6.62L23.22 6.62Q23.26 6.62 23.28 6.82L23.28 6.82L23.28 6.82Q23.31 6.82 23.37 6.62L23.37 6.62L23.41 6.62L23.41 6.62Q23.45 6.62 23.48 6.83L23.48 6.83L23.50 6.83L23.54 6.62L23.63 6.62L23.63 6.64L23.63 6.64Q23.55 6.99 23.52 6.99L23.52 6.99L23.45 6.99L23.45 6.99Q23.45 6.97 23.40 6.78L23.40 6.78L23.39 6.78L23.39 6.78Q23.36 6.99 23.32 6.99L23.32 6.99L23.25 6.99L23.25 6.99Q23.20 6.78 23.15 6.64L23.15 6.64ZM23.22 7.11L23.22 7.11L23.28 7.11L23.28 7.11Q23.32 7.11 23.39 7.34L23.39 7.34L23.40 7.34L23.40 7.34Q23.40 7.31 23.46 7.11L23.46 7.11L23.58 7.11L23.58 7.49L23.50 7.49L23.50 7.29L23.48 7.29L23.48 7.29Q23.43 7.49 23.40 7.49L23.40 7.49L23.35 7.49L23.35 7.49Q23.30 7.33 23.30 7.31L23.30 7.31L23.28 7.31L23.28 7.31Q23.28 7.49 23.25 7.49L23.25 7.49L23.19 7.49L23.19 7.14L23.19 7.14Q23.19 7.11 23.22 7.11ZM23.17 7.60L23.17 7.60L23.24 7.60L23.24 7.60Q23.32 7.65 23.32 7.72L23.32 7.72L23.32 7.72Q23.32 7.72 23.41 7.60L23.41 7.60L23.48 7.60L23.48 7.64L23.39 7.78L23.39 7.78Q23.39 7.79 23.50 7.96L23.50 7.96L23.50 7.98L23.41 7.98L23.32 7.86L23.32 7.86Q23.26 7.98 23.24 7.98L23.24 7.98L23.15 7.98L23.15 7.98Q23.27 7.81 23.27 7.78L23.27 7.78L23.27 7.78Q23.17 7.63 23.17 7.60ZM23.22 8.09L23.22 8.09L23.32 8.09L23.32 8.09Q23.48 8.09 23.48 8.21L23.48 8.21L23.48 8.22L23.45 8.27L23.45 8.27Q23.47 8.27 23.50 8.33L23.50 8.33L23.50 8.39L23.50 8.39Q23.46 8.47 23.33 8.47L23.33 8.47L23.19 8.47L23.19 8.13L23.19 8.13Q23.19 8.09 23.22 8.09ZM23.39 8.18L23.28 8.18L23.28 8.24L23.39 8.24L23.39 8.18ZM20.75 8.54L20.75 8.18L20.84 8.18L20.84 8.31L20.96 8.31L20.96 8.21L20.96 8.21Q20.97 8.18 20.99 8.18L20.99 8.18L21.05 8.18L21.05 8.54L20.96 8.54L20.96 8.39L20.84 8.39L20.84 8.54L20.75 8.54ZM23.37 8.31L23.28 8.31L23.28 8.39L23.40 8.39L23.40 8.34L23.40 8.34Q23.40 8.31 23.37 8.31L23.37 8.31ZM23.22 8.59L23.22 8.59L23.43 8.59L23.43 8.59Q23.46 8.59 23.46 8.62L23.46 8.62L23.46 8.67L23.28 8.67L23.28 8.73L23.45 8.73L23.45 8.81L23.28 8.81L23.28 8.88L23.46 8.88L23.46 8.96L23.19 8.96L23.19 8.62L23.19 8.62Q23.19 8.59 23.22 8.59ZM20.75 8.75L20.75 8.67L21.02 8.67L21.02 8.70L21.02 8.70Q21.02 8.76 20.86 8.95L20.86 8.95L20.86 8.95Q21.04 8.95 21.04 8.98L21.04 8.98L21.04 9.03L20.73 9.03L20.73 8.96L20.73 8.96Q20.85 8.82 20.89 8.75L20.89 8.75L20.75 8.75ZM19.02 9.14L19.02 9.14L19.02 9.14Q19.17 9.14 19.19 9.36L19.19 9.36L19.19 9.36Q19.19 9.52 18.99 9.54L18.99 9.54L18.99 9.54Q18.83 9.50 18.83 9.36L18.83 9.36L18.83 9.36Q18.83 9.14 19.02 9.14ZM20.84 9.16L20.84 9.16L20.94 9.16L20.94 9.16Q20.94 9.20 21.08 9.52L21.08 9.52L20.99 9.52L20.99 9.52Q20.96 9.52 20.96 9.45L20.96 9.45L20.84 9.45L20.84 9.45Q20.81 9.45 20.81 9.52L20.81 9.52L20.71 9.52L20.71 9.50L20.71 9.50Q20.75 9.44 20.84 9.16ZM18.93 9.29L18.93 9.29L18.93 9.36L18.93 9.36Q18.93 9.45 19.02 9.45L19.02 9.45L19.02 9.45Q19.09 9.44 19.09 9.36L19.09 9.36L19.09 9.29L19.09 9.29Q19.09 9.26 19.02 9.22L19.02 9.22L18.99 9.22L18.99 9.22Q18.97 9.22 18.93 9.29ZM20.88 9.29L20.88 9.29L20.86 9.37L20.92 9.37L20.92 9.37Q20.90 9.29 20.88 9.29ZM18.99 9.63L18.99 9.63L18.99 9.63Q19.10 9.63 19.15 9.73L19.15 9.73L19.15 9.78L19.07 9.78L19.07 9.78Q19.07 9.71 18.98 9.71L18.98 9.71L18.93 9.78L18.93 9.84L18.93 9.84Q18.93 9.95 19.02 9.95L19.02 9.95L19.02 9.95Q19.04 9.95 19.11 9.86L19.11 9.86L19.17 9.86L19.17 9.86Q19.17 10.00 18.99 10.03L18.99 10.03L18.99 10.03Q18.83 9.98 18.83 9.84L18.83 9.84L18.83 9.84Q18.85 9.63 18.99 9.63ZM27.64 1.93L27.64 1.93L27.64 1.93Q29.70 1.93 30.23 3.21L30.23 3.21L30.23 3.21Q30.38 3.53 30.38 3.63L30.38 3.63L29.52 3.63L29.52 3.89L30.44 3.89L30.44 3.88L30.44 3.88Q30.44 3.81 30.38 3.63L30.38 3.63L31.96 3.63L31.96 3.89L30.46 3.89L30.46 3.91L30.46 3.91Q30.58 4.46 30.63 5.09L30.63 5.09L30.63 5.09Q30.63 5.13 28.83 5.22L28.83 5.22L28.83 5.21L28.83 5.21Q28.83 3.58 27.71 3.58L27.71 3.58L27.51 3.58L27.51 3.58Q26.67 3.58 26.49 4.29L26.49 4.29L26.49 4.29Q26.34 4.89 26.34 5.87L26.34 5.87L26.34 7.20L26.33 7.40L25.70 7.40L25.70 7.71L26.33 7.71L26.33 10.08L28.96 10.08L28.96 7.62L30.47 7.62L30.47 10.08L29.63 10.08L29.63 11.60L27.88 11.60L27.88 11.73L26.51 11.73L26.51 11.60L25.12 11.60L25.12 10.84L26.04 10.84L26.04 10.51L24.66 10.51L24.66 9.39L24.07 9.39L24.07 8.01L24.38 8.01L24.38 8.01Q24.36 7.15 24.36 6.66L24.36 6.66L24.36 6.66Q24.36 4.42 24.58 3.84L24.58 3.84L24.58 3.84Q24.78 3.17 25.24 2.69L25.24 2.69L25.24 2.69Q26.05 1.93 27.64 1.93ZM26.46 9.59L26.46 9.59L26.54 9.59L26.54 9.93L26.74 9.93L26.74 10.04L26.46 10.04L26.46 10.04Q26.43 10.04 26.43 10.00L26.43 10.00L26.43 9.63L26.43 9.63Q26.43 9.59 26.46 9.59ZM28.51 9.60L28.51 9.59L28.62 9.59L28.62 9.59Q28.70 9.66 28.70 9.72L28.70 9.72L28.70 9.72Q28.71 9.72 28.81 9.59L28.81 9.59L28.90 9.59L28.90 9.63L28.90 9.63Q28.78 9.78 28.78 9.84L28.78 9.84L28.78 9.84Q28.80 9.84 28.91 10.01L28.91 10.01L28.91 10.04L28.81 10.04L28.70 9.91L28.70 9.91Q28.64 10.02 28.60 10.04L28.60 10.04L28.50 10.04L28.50 10.04Q28.53 9.97 28.65 9.80L28.65 9.80L28.51 9.60ZM29.87 10.19L29.87 10.19L29.87 10.19Q30.03 10.23 30.03 10.28L30.03 10.28L30.03 10.35L29.96 10.35L29.90 10.28L29.83 10.28L29.83 10.28Q29.80 10.29 29.80 10.32L29.80 10.32L29.80 10.35L29.80 10.35Q30.05 10.40 30.05 10.46L30.05 10.46L30.05 10.51L30.05 10.51Q30.05 10.64 29.90 10.64L29.90 10.64L29.83 10.64L29.83 10.64Q29.74 10.64 29.69 10.55L29.69 10.55L29.69 10.48L29.78 10.48L29.78 10.48Q29.78 10.56 29.88 10.56L29.88 10.56L29.90 10.56L29.90 10.56Q29.92 10.56 29.95 10.51L29.95 10.51L29.95 10.51Q29.95 10.49 29.72 10.40L29.72 10.40L29.70 10.36L29.70 10.28L29.70 10.28Q29.70 10.23 29.87 10.19ZM32.46 7.57L34.15 1.94L35.80 1.94L35.80 1.94Q35.83 2.08 37.41 7.29L37.41 7.29L37.70 7.29L37.70 10.51L37.02 10.51L37.02 10.76L37.70 10.76L37.70 11.45L35.88 11.45L35.88 9.47L33.65 9.47L33.65 10.31L32.75 10.31L32.75 11.73L31.10 11.73L31.10 11.63L31.23 11.63L31.23 10.31L31.90 10.31L31.90 7.57L32.46 7.57ZM34.96 4.70L34.92 4.70L34.92 4.72L34.92 4.72Q34.71 5.88 34.10 8.39L34.10 8.39L35.64 8.39L35.64 7.29L35.51 7.29L35.51 7.29Q34.96 4.91 34.96 4.70L34.96 4.70ZM32.01 7.08L32.01 7.08L32.16 7.08L32.16 7.08Q32.16 7.14 32.22 7.18L32.22 7.18L32.22 7.18Q32.22 7.12 32.29 7.08L32.29 7.08L32.40 7.08L32.40 7.09L32.40 7.09Q32.29 7.25 32.29 7.27L32.29 7.27L32.29 7.27Q32.31 7.33 32.42 7.47L32.42 7.47L32.42 7.51L32.35 7.51L32.35 7.51Q32.26 7.51 32.22 7.37L32.22 7.37L32.22 7.37Q32.12 7.51 32.10 7.51L32.10 7.51L32.02 7.51L32.02 7.51Q31.99 7.51 31.99 7.47L31.99 7.47L31.99 7.47Q32.01 7.47 32.12 7.29L32.12 7.29L32.12 7.26L32.12 7.26Q32.01 7.09 32.01 7.08ZM30.62 7.57L30.62 7.27L31.90 7.27L31.90 7.57L30.62 7.57ZM37.75 7.59L37.75 7.49L38.10 7.49L38.10 7.57L37.88 7.83L38.08 7.83L38.08 7.83Q38.11 7.84 38.11 7.87L38.11 7.87L38.11 7.90L38.11 7.90Q38.11 7.94 38.08 7.94L38.08 7.94L37.73 7.94L37.73 7.85L37.95 7.59L37.75 7.59ZM35.23 8.36L35.23 7.92L35.32 7.92L35.32 8.08L35.51 7.92L35.60 7.92L35.60 7.94L35.46 8.10L35.46 8.10Q35.62 8.33 35.62 8.36L35.62 8.36L35.52 8.36L35.52 8.36Q35.51 8.36 35.37 8.18L35.37 8.18L35.37 8.18Q35.35 8.18 35.32 8.23L35.32 8.23L35.32 8.36L35.23 8.36ZM37.78 8.07L37.78 8.07L37.98 8.07L37.98 8.07Q38.13 8.09 38.13 8.22L38.13 8.22L38.08 8.30L38.08 8.30Q38.13 8.35 38.13 8.50L38.13 8.50L38.13 8.51L38.03 8.51L38.03 8.51Q38.01 8.35 37.98 8.35L37.98 8.35L37.86 8.35L37.86 8.51L37.78 8.51L37.78 8.51Q37.75 8.51 37.75 8.48L37.75 8.48L37.75 8.10L37.75 8.10Q37.75 8.07 37.78 8.07ZM38.01 8.16L37.86 8.16L37.86 8.26L37.98 8.26L37.98 8.26Q38.01 8.26 38.01 8.23L38.01 8.23L38.01 8.16ZM37.75 8.64L37.75 8.64L38.06 8.64L38.06 8.64Q38.10 8.65 38.10 8.67L38.10 8.67L38.10 8.71L38.10 8.71Q38.10 8.74 38.06 8.74L38.06 8.74L37.97 8.74L37.97 9.09L37.85 9.09L37.85 8.74L37.75 8.74L37.75 8.74Q37.71 8.74 37.71 8.71L37.71 8.71L37.71 8.67L37.71 8.67Q37.72 8.64 37.75 8.64ZM37.85 9.67L37.71 9.22L37.80 9.22L37.80 9.22Q37.84 9.22 37.90 9.50L37.90 9.50L37.91 9.50L37.91 9.50Q37.99 9.26 37.99 9.22L37.99 9.22L38.11 9.22L38.11 9.22Q37.98 9.67 37.95 9.67L37.95 9.67L37.85 9.67ZM33.74 9.75L34.15 9.60L34.15 9.69L34.15 9.69Q34.15 9.71 33.89 9.80L33.89 9.80L33.89 9.82L34.15 9.91L34.15 10.01L33.74 9.86L33.74 9.75ZM31.59 9.80L31.59 9.80L31.64 9.80L31.64 9.80Q31.70 9.80 31.82 10.25L31.82 10.25L31.73 10.25L31.73 10.25Q31.73 10.23 31.69 10.14L31.69 10.14L31.54 10.14L31.54 10.14Q31.53 10.25 31.49 10.25L31.49 10.25L31.41 10.25L31.41 10.25Q31.55 9.80 31.59 9.80ZM37.93 9.80L37.93 9.80L37.98 9.80L37.98 9.80Q38.14 9.80 38.18 10.03L38.18 10.03L38.18 10.03Q38.13 10.26 37.97 10.26L37.97 10.26L37.97 10.26Q37.73 10.22 37.73 10.03L37.73 10.03L37.73 10.03Q37.77 9.80 37.93 9.80ZM37.85 10.01L37.85 10.01L37.85 10.03L37.85 10.03Q37.85 10.12 37.93 10.17L37.93 10.17L37.98 10.17L37.98 10.17Q38.06 10.12 38.06 10.03L38.06 10.03L38.06 10.01L38.06 10.01Q38.05 9.88 37.95 9.88L37.95 9.88L37.95 9.88Q37.85 9.92 37.85 10.01ZM31.62 9.95L31.61 9.95L31.61 9.95Q31.58 10.06 31.58 10.06L31.58 10.06L31.66 10.06L31.62 9.95ZM35.88 11.73L35.88 11.57L38.08 11.57L38.08 11.73L35.88 11.73ZM38.64 6.62L38.64 1.94L41.62 1.94L41.62 1.94Q43.48 1.94 44.19 3.21L44.19 3.21L44.19 3.21Q44.78 4.20 44.78 6.48L44.78 6.48L45.07 6.48L45.07 8.82L42.18 8.82L42.18 8.56L43.08 8.56L43.08 6.48L42.82 6.48L42.82 5.63L42.82 5.63Q42.82 4.18 42.18 3.79L42.18 3.79L42.18 3.79Q41.79 3.57 40.96 3.57L40.96 3.57L40.56 3.57L40.56 6.43L40.83 6.43L40.83 8.82L38.87 8.82L38.87 6.62L38.64 6.62ZM42.87 8.09L42.87 8.09L42.96 8.09L42.96 8.34L43.02 8.34L43.02 8.42L42.96 8.42L42.96 8.52L42.87 8.52L42.87 8.42L42.69 8.42L42.69 8.36L42.69 8.36Q42.87 8.11 42.87 8.09ZM42.79 8.34L42.79 8.34L42.87 8.34L42.87 8.24L42.87 8.24Q42.85 8.24 42.79 8.34ZM41.06 8.54L40.93 8.33L41.02 8.33L41.02 8.33Q41.04 8.33 41.13 8.44L41.13 8.44L41.13 8.44Q41.19 8.36 41.19 8.33L41.19 8.33L41.30 8.33L41.30 8.34L41.30 8.34Q41.19 8.50 41.19 8.54L41.19 8.54L41.32 8.75L41.19 8.75L41.19 8.75Q41.19 8.70 41.11 8.62L41.11 8.62L41.11 8.62Q41.05 8.74 41.01 8.75L41.01 8.75L40.91 8.75L40.91 8.75Q41.02 8.55 41.06 8.54L41.06 8.54ZM37.77 9.13L37.77 8.82L38.66 8.82L38.66 9.13L40.83 9.13L40.83 9.78L42.18 9.78L42.18 9.13L45.07 9.13L45.07 9.78L43.08 9.78L43.08 11.52L40.83 11.52L40.83 11.73L38.67 11.73L38.67 11.73Q38.64 11.73 38.64 11.70L38.64 11.70L38.64 9.13L37.77 9.13ZM40.83 9.13L40.83 8.82L42.18 8.82L42.18 9.13L40.83 9.13ZM45.07 9.13L45.07 8.82L47.00 8.82L47.00 9.13L45.07 9.13ZM43.31 9.84L43.31 9.84L43.43 9.84L43.43 9.84Q43.54 10.16 43.57 10.28L43.57 10.28L43.49 10.28L43.49 10.28Q43.46 10.28 43.44 10.19L43.44 10.19L43.31 10.19L43.31 10.19Q43.28 10.19 43.26 10.28L43.26 10.28L43.16 10.28L43.16 10.27L43.16 10.27Q43.16 10.25 43.31 9.84ZM43.69 9.84L43.69 9.84L43.79 9.84L43.87 10.12L43.89 10.12L43.89 10.12Q43.89 10.09 43.97 9.84L43.97 9.84L44.07 9.84L44.07 9.84Q44.07 9.89 43.93 10.28L43.93 10.28L43.84 10.28L43.84 10.28Q43.80 10.28 43.69 9.84ZM44.24 10.28L44.24 9.84L44.35 9.84L44.35 10.28L44.24 10.28ZM44.54 10.28L44.54 9.84L44.73 9.84L44.73 9.84Q44.94 9.84 44.94 10.08L44.94 10.08L44.94 10.08Q44.94 10.25 44.73 10.28L44.73 10.28L44.54 10.28ZM44.76 9.94L44.66 9.94L44.66 10.19L44.76 10.19L44.76 10.19Q44.78 10.19 44.82 10.12L44.82 10.12L44.82 10.00L44.82 10.00Q44.82 9.98 44.76 9.94L44.76 9.94ZM43.38 9.97L43.36 9.97L43.36 9.97Q43.36 9.99 43.33 10.10L43.33 10.10L43.41 10.10L43.41 10.10Q43.38 9.99 43.38 9.97L43.38 9.97ZM49.79 1.93L46.09 12.07L45.54 12.07L49.24 1.93L49.79 1.93ZM49.94 4.39L49.94 3.25L55.68 6.56L55.68 7.12L49.94 10.41L49.94 9.27L54.21 6.84L49.94 4.39Z"></path></g><!----><!----><g data-v-423bf9ae="" id="8ad4b034-6097-4ba8-b650-c58fa1e8ab26" fill="#64ffda" transform="matrix(5.988023678532963,0,0,5.988023678532963,-1.4970046103617278,115.39521338033573)"><path d="M0.25 5.01C0.25 5.17 0.43 5.17 0.56 5.17C0.71 5.17 0.76 5.15 0.77 4.97L0.88 3.89C0.90 3.81 1.44 3.75 2.20 3.75L4.19 3.75C4.24 3.75 4.27 4.35 4.27 4.97C4.27 6.43 4.21 12.18 4.09 12.18L3.22 12.18C3.00 12.18 2.95 12.19 2.95 12.39C2.95 12.63 2.97 12.68 3.16 12.68C3.49 12.68 4.47 12.64 4.89 12.64C5.31 12.64 6.24 12.68 6.57 12.68C6.73 12.68 6.76 12.61 6.76 12.40C6.76 12.24 6.73 12.18 6.57 12.18L5.57 12.18C5.54 12.18 5.54 11.76 5.54 11.31C5.54 9.56 5.63 5.96 5.63 5.92C5.64 5.18 5.64 3.75 5.74 3.75L7.35 3.75C8.06 3.75 8.89 3.78 8.89 3.85C8.89 3.99 8.85 4.90 8.85 4.97C8.85 5.12 8.92 5.17 9.10 5.17C9.30 5.17 9.37 5.17 9.37 5.03C9.37 3.93 9.42 3.40 9.42 3.14C9.42 2.94 9.34 2.94 9.14 2.94C8.99 2.94 8.93 2.98 8.92 3.16C8.92 3.23 8.27 3.28 7.43 3.28L2.44 3.28C1.78 3.28 0.97 3.28 0.97 3.21L0.97 3.07C0.97 2.94 0.84 2.94 0.74 2.94C0.52 2.94 0.49 3.00 0.48 3.19C0.42 3.89 0.25 4.97 0.25 5.01ZM15.64 10.04C15.64 11.58 16.80 12.85 18.33 12.85C20.09 12.85 21.13 11.58 21.13 9.84C21.13 8.29 20.10 7.01 18.55 7.01C16.80 7.01 15.64 8.37 15.64 10.04ZM16.72 10.23C16.72 8.69 17.11 7.46 18.38 7.46C19.52 7.46 20.03 8.74 20.03 9.74C20.03 10.92 19.80 12.40 18.33 12.40C17.28 12.40 16.72 11.27 16.72 10.23ZM28.88 10.04C28.88 11.58 30.04 12.85 31.57 12.85C33.33 12.85 34.37 11.58 34.37 9.84C34.37 8.29 33.35 7.01 31.79 7.01C30.04 7.01 28.88 8.37 28.88 10.04ZM29.96 10.23C29.96 8.69 30.35 7.46 31.63 7.46C32.76 7.46 33.28 8.74 33.28 9.74C33.28 10.92 33.04 12.40 31.57 12.40C30.52 12.40 29.96 11.27 29.96 10.23ZM51.93 10.04C51.93 11.58 53.09 12.85 54.61 12.85C56.38 12.85 57.41 11.58 57.41 9.84C57.41 8.29 56.39 7.01 54.84 7.01C53.09 7.01 51.93 8.37 51.93 10.04ZM53.00 10.23C53.00 8.69 53.40 7.46 54.67 7.46C55.80 7.46 56.32 8.74 56.32 9.74C56.32 10.92 56.08 12.40 54.61 12.40C53.56 12.40 53.00 11.27 53.00 10.23ZM64.95 3.58C64.95 3.65 64.96 3.65 65.02 3.65C65.07 3.65 65.66 3.60 65.74 3.60C65.81 3.60 65.87 3.57 65.90 3.82C66.01 5.07 66.05 10.37 66.05 11.06C66.05 11.44 66.05 12.21 65.98 12.21L65.27 12.21C65.11 12.21 65.10 12.29 65.10 12.43C65.10 12.59 65.11 12.67 65.28 12.67C65.70 12.67 66.28 12.64 66.63 12.64C67.03 12.64 67.52 12.67 67.79 12.67C67.96 12.67 67.96 12.60 67.96 12.43C67.96 12.28 67.96 12.21 67.79 12.21L67.19 12.21C67.13 12.21 67.12 12.05 67.12 11.70C67.12 8.89 67.05 7.62 67.03 3.32C67.03 3.16 67.03 3.07 66.89 3.07C66.81 3.07 65.72 3.15 65.16 3.19C65.04 3.21 65.02 3.19 64.99 3.32C64.96 3.42 64.95 3.57 64.95 3.58ZM75.70 10.07C75.70 12.11 76.94 12.82 78.20 12.82C78.75 12.82 79.42 12.57 79.90 12.28C80.01 12.21 80.05 12.22 80.05 12.29C80.05 12.35 80.04 12.77 80.04 12.80C80.04 12.92 80.05 12.96 80.15 12.96C80.22 12.96 81.87 12.74 81.87 12.74C82.00 12.73 82.00 12.57 82.00 12.38C82.00 12.28 81.94 12.28 81.86 12.29C81.72 12.31 81.40 12.36 81.35 12.36C81.12 12.36 81.06 12.24 81.05 11.63C81.03 11.13 81.02 10.47 81.02 10.02C81.02 5.68 81.10 3.74 81.10 3.26C81.10 3.07 81.09 3.04 81.03 3.04C80.81 3.04 79.97 3.19 79.04 3.29C78.93 3.30 78.95 3.33 78.92 3.51C78.89 3.70 78.90 3.77 78.97 3.77C79.07 3.77 79.83 3.64 79.91 3.64C80.00 3.64 80.07 6.51 80.07 7.41C80.07 7.52 80.05 7.60 80.02 7.60C79.98 7.60 79.38 7.25 78.58 7.25C76.94 7.25 75.70 8.46 75.70 10.07ZM76.80 9.97C76.80 8.74 77.55 7.62 78.75 7.62C79.46 7.62 80.07 8.16 80.07 8.30L80.07 11.80C80.07 12.00 79.27 12.22 78.89 12.22C77.41 12.22 76.80 11.26 76.80 9.97ZM99.54 7.78C99.54 7.87 99.57 7.92 99.65 7.92L100.00 7.92C100.13 7.92 100.16 8.19 100.16 8.74C100.16 9.14 100.13 10.77 100.13 11.77C100.13 12.21 100.37 12.77 101.18 12.77C101.67 12.77 102.62 12.36 102.91 12.15C102.98 12.10 102.98 12.08 102.98 12.01C102.98 11.93 102.97 11.80 102.91 11.80C102.77 11.80 102.31 12.03 101.77 12.03C101.16 12.03 101.14 11.63 101.14 11.20L101.14 8.51C101.14 8.15 101.14 7.91 101.19 7.91L102.52 7.91C102.65 7.91 102.69 7.85 102.75 7.66C102.76 7.59 102.79 7.49 102.79 7.43C102.79 7.36 102.76 7.35 102.69 7.35L101.25 7.35C101.14 7.35 101.14 7.35 101.14 7.25C101.14 7.03 101.22 5.95 101.22 5.91C101.22 5.81 101.18 5.74 101.07 5.74C101.00 5.74 100.94 5.78 100.88 5.87L99.61 7.64C99.57 7.69 99.54 7.73 99.54 7.78ZM110.53 10.04C110.53 11.58 111.69 12.85 113.22 12.85C114.98 12.85 116.02 11.58 116.02 9.84C116.02 8.29 115.00 7.01 113.44 7.01C111.69 7.01 110.53 8.37 110.53 10.04ZM111.61 10.23C111.61 8.69 112 7.46 113.27 7.46C114.41 7.46 114.93 8.74 114.93 9.74C114.93 10.92 114.69 12.40 113.22 12.40C112.17 12.40 111.61 11.27 111.61 10.23ZM133.64 10.12C133.64 11.73 134.67 12.78 136.33 12.78C137.72 12.78 138.59 11.90 138.59 11.82C138.59 11.68 138.54 11.66 138.45 11.66C138.38 11.66 137.72 12.08 136.75 12.08C135.34 12.08 134.64 10.93 134.64 9.77C134.64 8.68 135.32 7.43 136.49 7.43C137.34 7.43 137.37 8.04 137.59 8.68C137.63 8.82 137.75 8.86 137.87 8.86C138.01 8.86 138.19 8.76 138.32 8.67C138.45 8.57 138.47 8.48 138.47 8.36C138.47 7.60 137.49 6.97 136.57 6.97C135.20 6.97 133.64 8.02 133.64 10.12ZM146.34 10.04C146.34 11.58 147.50 12.85 149.03 12.85C150.79 12.85 151.83 11.58 151.83 9.84C151.83 8.29 150.81 7.01 149.25 7.01C147.50 7.01 146.34 8.37 146.34 10.04ZM147.42 10.23C147.42 8.69 147.81 7.46 149.09 7.46C150.22 7.46 150.74 8.74 150.74 9.74C150.74 10.92 150.50 12.40 149.03 12.40C147.98 12.40 147.42 11.27 147.42 10.23ZM159.59 10.07C159.59 12.11 160.83 12.82 162.09 12.82C162.64 12.82 163.31 12.57 163.79 12.28C163.90 12.21 163.94 12.22 163.94 12.29C163.94 12.35 163.93 12.77 163.93 12.80C163.93 12.92 163.94 12.96 164.04 12.96C164.11 12.96 165.76 12.74 165.76 12.74C165.89 12.73 165.89 12.57 165.89 12.38C165.89 12.28 165.83 12.28 165.75 12.29C165.61 12.31 165.28 12.36 165.24 12.36C165.00 12.36 164.95 12.24 164.93 11.63C164.92 11.13 164.91 10.47 164.91 10.02C164.91 5.68 164.99 3.74 164.99 3.26C164.99 3.07 164.98 3.04 164.92 3.04C164.70 3.04 163.86 3.19 162.93 3.29C162.82 3.30 162.83 3.33 162.81 3.51C162.78 3.70 162.79 3.77 162.86 3.77C162.96 3.77 163.72 3.64 163.80 3.64C163.88 3.64 163.95 6.51 163.95 7.41C163.95 7.52 163.94 7.60 163.91 7.60C163.87 7.60 163.27 7.25 162.47 7.25C160.83 7.25 159.59 8.46 159.59 10.07ZM160.69 9.97C160.69 8.74 161.43 7.62 162.64 7.62C163.35 7.62 163.95 8.16 163.95 8.30L163.95 11.80C163.95 12.00 163.16 12.22 162.78 12.22C161.29 12.22 160.69 11.26 160.69 9.97ZM173.59 10.01C173.59 11.68 174.55 12.85 176.32 12.85C177.77 12.85 178.77 11.56 178.77 11.48C178.77 11.45 178.53 11.24 178.49 11.24C178.40 11.24 177.81 12.15 176.64 12.15C175.63 12.15 174.64 11.33 174.64 9.88C174.64 9.72 174.65 9.49 174.68 9.42C174.89 9.42 177.65 9.49 177.80 9.49C177.94 9.49 178.60 9.46 178.60 9.28C178.60 8.09 177.88 7.01 176.47 7.01C174.76 7.01 173.59 8.33 173.59 10.01ZM174.71 9.03C174.76 8.34 175.41 7.41 176.30 7.41C176.74 7.41 177.55 7.70 177.55 8.99C177.55 9.04 177.38 9.03 177.03 9.04C176.33 9.07 174.90 9.10 174.83 9.10C174.72 9.10 174.71 9.09 174.71 9.03ZM186.93 4.13C186.93 4.37 187.11 4.35 187.29 4.38C189.46 4.66 190.44 5.68 190.44 6.94C190.44 7.41 190.37 8.13 189.27 8.13L188.43 8.13C188.17 8.13 188.05 8.16 188.03 8.43C188.02 8.62 188.01 10.43 188.01 10.61C188.01 10.82 188.02 10.84 188.27 10.84C188.45 10.84 188.48 10.82 188.48 10.71C188.51 10.26 188.55 9.86 188.59 9.41C188.61 9.21 188.66 9.21 188.90 9.21C190.50 9.21 190.85 8.01 190.85 6.73C190.85 4.12 188.38 3.74 187.36 3.57C187.29 3.56 187.28 3.22 187.10 3.22C186.96 3.22 186.93 3.42 186.93 3.50ZM187.43 12.07C187.43 12.31 187.89 12.75 188.30 12.75C188.48 12.75 188.93 12.35 188.93 11.90C188.93 11.51 188.36 11.20 188.09 11.20C187.82 11.20 187.43 11.76 187.43 12.07Z"></path></g></svg>